<svg width="118" height="210" viewBox="0 0 118 210" fill="none" xmlns="http://www.w3.org/2000/svg">
<path d="M41.2884 150.523V149.325C41.4214 136.619 42.7519 126.507 45.2798 118.99C47.8078 111.473 51.4001 105.386 56.0568 100.729C60.7135 96.0723 66.3016 91.7815 72.821 87.8565C76.746 85.4616 80.2718 82.6343 83.3984 79.3746C86.5251 76.0484 88.9865 72.2232 90.7827 67.8991C92.6454 63.575 93.5767 58.7853 93.5767 53.5298C93.5767 47.0104 92.0466 41.3558 88.9865 36.566C85.9264 31.7763 81.8351 28.0842 76.7127 25.4897C71.5903 22.8952 65.9025 21.598 59.6492 21.598C54.1941 21.598 48.9387 22.7289 43.8828 24.9908C38.8269 27.2526 34.6026 30.8117 31.2099 35.668C27.8171 40.5243 25.8546 46.8774 25.3224 54.7273H0.176136C0.708333 43.4181 3.63542 33.7388 8.95739 25.6893C14.3459 17.6398 21.4308 11.4863 30.212 7.22868C39.0598 2.97111 48.8722 0.842322 59.6492 0.842322C71.3575 0.842322 81.5358 3.17068 90.184 7.8274C98.8987 12.4841 105.618 18.8705 110.341 26.9865C115.131 35.1025 117.526 44.3494 117.526 54.7273C117.526 62.045 116.395 68.6642 114.133 74.5849C111.938 80.5056 108.744 85.7943 104.553 90.451C100.429 95.1077 95.4394 99.2322 89.5852 102.825C83.7311 106.483 79.0411 110.342 75.5153 114.4C71.9895 118.391 69.4283 123.148 67.8317 128.669C66.2351 134.191 65.3703 141.076 65.2372 149.325V150.523H41.2884ZM54.0611 209.597C49.1383 209.597 44.9139 207.834 41.3881 204.308C37.8623 200.782 36.0994 196.558 36.0994 191.635C36.0994 186.712 37.8623 182.488 41.3881 178.962C44.9139 175.436 49.1383 173.673 54.0611 173.673C58.9839 173.673 63.2082 175.436 66.734 178.962C70.2598 182.488 72.0227 186.712 72.0227 191.635C72.0227 194.895 71.1912 197.888 69.5281 200.616C67.9315 203.343 65.7694 205.539 63.0419 207.202C60.3809 208.798 57.3873 209.597 54.0611 209.597Z" fill="black"/>
</svg>
